# xmcd CD database file
#
# Track frame offsets:
#	150
#	17789
#	36411
#	55469
#	75018
#	94706
#	111406
#	128946
#	147508
#	168062
#	186346
#	207233
#	228740
#	251665
#	269797
#	288241
#
# Disc length: 4103 seconds
#
# Revision: 1
# Processed by: cddbd v1.5.2PL0 Copyright (c) Steve Scherf et al.
# Submitted via: CDex 1.51
#
DISCID=ee100510
DTITLE=Various Artist - EZ-PP-1-CD-2
DYEAR=1900
DGENRE=Blues
TTITLE0=Calvin Harris - I'm Not Alone
TTITLE1=Girls Aloud - The Promise
TTITLE2=Leona Lewis - Better In Time
TTITLE3=Take That - Rule The World
TTITLE4=Killers The - Human
TTITLE5=Pink - Who Knew
TTITLE6=Take That - Shine
TTITLE7=Kings Of Leon - Use Somebody
TTITLE8=Rihanna -  Umbrella
TTITLE9=Britney Spears - Womanizer
TTITLE10=Nickleback - Rockstar
TTITLE11=Fergie - Big Girls Don't Cry
TTITLE12=Eva Cassidy - Somewhere Over The Rainbow
TTITLE13=Amy Winehouse - Rehab
TTITLE14=Coldplay - Viva La Vida
TTITLE15=Pussycat Dolls The - When I Grow Up
EXTD=
EXTT0=
EXTT1=
EXTT2=
EXTT3=
EXTT4=
EXTT5=
EXTT6=
EXTT7=
EXTT8=
EXTT9=
EXTT10=
EXTT11=
EXTT12=
EXTT13=
EXTT14=
EXTT15=
PLAYORDER=
